<mxfile host="app.diagrams.net" agent="Mozilla/5.0 (Windows NT 10.0; Win64; x64; rv:132.0) Gecko/20100101 Firefox/132.0" version="24.7.17">
  <diagram name="Page-1" id="eNv_A5RffvFErobexF15">
    <mxGraphModel dx="989" dy="514" grid="1" gridSize="10" guides="1" tooltips="1" connect="1" arrows="1" fold="1" page="1" pageScale="1" pageWidth="850" pageHeight="1100" math="0" shadow="0">
      <root>
        <mxCell id="0" />
        <mxCell id="1" parent="0" />
        <mxCell id="h_vmNCxSiuyqfkkhFMnX-108" style="rounded=0;orthogonalLoop=1;jettySize=auto;html=1;exitX=0.5;exitY=0;exitDx=0;exitDy=0;entryX=0;entryY=0.5;entryDx=0;entryDy=0;endArrow=none;endFill=0;startArrow=classic;startFill=1;" edge="1" parent="1" source="h_vmNCxSiuyqfkkhFMnX-1" target="h_vmNCxSiuyqfkkhFMnX-107">
          <mxGeometry relative="1" as="geometry" />
        </mxCell>
        <mxCell id="h_vmNCxSiuyqfkkhFMnX-115" style="rounded=0;orthogonalLoop=1;jettySize=auto;html=1;exitX=1;exitY=0.25;exitDx=0;exitDy=0;entryX=0;entryY=0.5;entryDx=0;entryDy=0;endArrow=none;endFill=0;startArrow=classic;startFill=1;" edge="1" parent="1" source="h_vmNCxSiuyqfkkhFMnX-1" target="h_vmNCxSiuyqfkkhFMnX-113">
          <mxGeometry relative="1" as="geometry" />
        </mxCell>
        <mxCell id="h_vmNCxSiuyqfkkhFMnX-1" value="Business" style="rounded=0;whiteSpace=wrap;html=1;fillColor=#fff2cc;strokeColor=#d6b656;" vertex="1" parent="1">
          <mxGeometry x="200" y="400" width="80" height="40" as="geometry" />
        </mxCell>
        <mxCell id="h_vmNCxSiuyqfkkhFMnX-2" value="Review" style="rounded=0;whiteSpace=wrap;html=1;fillColor=#fff2cc;strokeColor=#d6b656;" vertex="1" parent="1">
          <mxGeometry x="400" y="200" width="80" height="40" as="geometry" />
        </mxCell>
        <mxCell id="h_vmNCxSiuyqfkkhFMnX-3" value="User" style="rounded=0;whiteSpace=wrap;html=1;fillColor=#fff2cc;strokeColor=#d6b656;" vertex="1" parent="1">
          <mxGeometry x="720" y="400" width="80" height="40" as="geometry" />
        </mxCell>
        <mxCell id="h_vmNCxSiuyqfkkhFMnX-106" style="edgeStyle=orthogonalEdgeStyle;rounded=0;orthogonalLoop=1;jettySize=auto;html=1;endArrow=none;endFill=0;" edge="1" parent="1" source="h_vmNCxSiuyqfkkhFMnX-5">
          <mxGeometry relative="1" as="geometry">
            <mxPoint x="530" y="700" as="targetPoint" />
          </mxGeometry>
        </mxCell>
        <mxCell id="h_vmNCxSiuyqfkkhFMnX-118" style="rounded=0;orthogonalLoop=1;jettySize=auto;html=1;exitX=1;exitY=0.5;exitDx=0;exitDy=0;entryX=0;entryY=0.5;entryDx=0;entryDy=0;endArrow=none;endFill=0;shape=link;" edge="1" parent="1" source="h_vmNCxSiuyqfkkhFMnX-5" target="h_vmNCxSiuyqfkkhFMnX-117">
          <mxGeometry relative="1" as="geometry" />
        </mxCell>
        <mxCell id="h_vmNCxSiuyqfkkhFMnX-5" value="Tip" style="rounded=0;whiteSpace=wrap;html=1;fillColor=#fff2cc;strokeColor=#d6b656;" vertex="1" parent="1">
          <mxGeometry x="480" y="640" width="80" height="40" as="geometry" />
        </mxCell>
        <mxCell id="h_vmNCxSiuyqfkkhFMnX-21" style="edgeStyle=orthogonalEdgeStyle;rounded=0;orthogonalLoop=1;jettySize=auto;html=1;exitX=1;exitY=0.5;exitDx=0;exitDy=0;endArrow=none;endFill=0;" edge="1" parent="1" source="h_vmNCxSiuyqfkkhFMnX-7">
          <mxGeometry relative="1" as="geometry">
            <mxPoint x="180" y="660" as="targetPoint" />
          </mxGeometry>
        </mxCell>
        <mxCell id="h_vmNCxSiuyqfkkhFMnX-7" value="&lt;u&gt;business_id&lt;/u&gt;" style="ellipse;whiteSpace=wrap;html=1;fillColor=#d5e8d4;strokeColor=#82b366;" vertex="1" parent="1">
          <mxGeometry x="80" y="240" width="80" height="40" as="geometry" />
        </mxCell>
        <mxCell id="h_vmNCxSiuyqfkkhFMnX-8" value="name" style="ellipse;whiteSpace=wrap;html=1;fillColor=#d5e8d4;strokeColor=#82b366;" vertex="1" parent="1">
          <mxGeometry x="80" y="280" width="80" height="40" as="geometry" />
        </mxCell>
        <mxCell id="h_vmNCxSiuyqfkkhFMnX-9" value="address" style="ellipse;whiteSpace=wrap;html=1;fillColor=#d5e8d4;strokeColor=#82b366;" vertex="1" parent="1">
          <mxGeometry x="80" y="320" width="80" height="40" as="geometry" />
        </mxCell>
        <mxCell id="h_vmNCxSiuyqfkkhFMnX-10" value="city" style="ellipse;whiteSpace=wrap;html=1;fillColor=#d5e8d4;strokeColor=#82b366;" vertex="1" parent="1">
          <mxGeometry x="80" y="360" width="80" height="40" as="geometry" />
        </mxCell>
        <mxCell id="h_vmNCxSiuyqfkkhFMnX-11" value="state" style="ellipse;whiteSpace=wrap;html=1;fillColor=#d5e8d4;strokeColor=#82b366;" vertex="1" parent="1">
          <mxGeometry x="80" y="400" width="80" height="40" as="geometry" />
        </mxCell>
        <mxCell id="h_vmNCxSiuyqfkkhFMnX-12" value="postal_code" style="ellipse;whiteSpace=wrap;html=1;fillColor=#d5e8d4;strokeColor=#82b366;" vertex="1" parent="1">
          <mxGeometry x="80" y="440" width="80" height="40" as="geometry" />
        </mxCell>
        <mxCell id="h_vmNCxSiuyqfkkhFMnX-13" value="latitude" style="ellipse;whiteSpace=wrap;html=1;fillColor=#d5e8d4;strokeColor=#82b366;" vertex="1" parent="1">
          <mxGeometry x="80" y="480" width="80" height="40" as="geometry" />
        </mxCell>
        <mxCell id="h_vmNCxSiuyqfkkhFMnX-14" value="longitude" style="ellipse;whiteSpace=wrap;html=1;fillColor=#d5e8d4;strokeColor=#82b366;" vertex="1" parent="1">
          <mxGeometry x="80" y="520" width="80" height="40" as="geometry" />
        </mxCell>
        <mxCell id="h_vmNCxSiuyqfkkhFMnX-15" value="stars" style="ellipse;whiteSpace=wrap;html=1;fillColor=#d5e8d4;strokeColor=#82b366;" vertex="1" parent="1">
          <mxGeometry x="80" y="560" width="80" height="40" as="geometry" />
        </mxCell>
        <mxCell id="h_vmNCxSiuyqfkkhFMnX-17" value="review_count" style="ellipse;whiteSpace=wrap;html=1;fillColor=#d5e8d4;strokeColor=#82b366;" vertex="1" parent="1">
          <mxGeometry x="80" y="600" width="80" height="40" as="geometry" />
        </mxCell>
        <mxCell id="h_vmNCxSiuyqfkkhFMnX-19" value="is_open" style="ellipse;whiteSpace=wrap;html=1;fillColor=#d5e8d4;strokeColor=#82b366;" vertex="1" parent="1">
          <mxGeometry x="80" y="640" width="80" height="40" as="geometry" />
        </mxCell>
        <mxCell id="h_vmNCxSiuyqfkkhFMnX-82" style="rounded=0;orthogonalLoop=1;jettySize=auto;html=1;entryX=0.5;entryY=0;entryDx=0;entryDy=0;endArrow=none;endFill=0;" edge="1" parent="1" source="h_vmNCxSiuyqfkkhFMnX-20">
          <mxGeometry relative="1" as="geometry">
            <mxPoint x="240" y="640" as="targetPoint" />
          </mxGeometry>
        </mxCell>
        <mxCell id="h_vmNCxSiuyqfkkhFMnX-83" style="edgeStyle=orthogonalEdgeStyle;rounded=0;orthogonalLoop=1;jettySize=auto;html=1;exitX=0.5;exitY=0;exitDx=0;exitDy=0;entryX=0.5;entryY=1;entryDx=0;entryDy=0;endArrow=none;endFill=0;shape=link;" edge="1" parent="1" target="h_vmNCxSiuyqfkkhFMnX-32">
          <mxGeometry relative="1" as="geometry">
            <mxPoint x="240" y="560" as="sourcePoint" />
          </mxGeometry>
        </mxCell>
        <mxCell id="h_vmNCxSiuyqfkkhFMnX-22" style="edgeStyle=orthogonalEdgeStyle;rounded=0;orthogonalLoop=1;jettySize=auto;html=1;exitX=1;exitY=0.5;exitDx=0;exitDy=0;endArrow=none;endFill=0;" edge="1" parent="1">
          <mxGeometry relative="1" as="geometry">
            <mxPoint x="180" y="300.14571428571435" as="targetPoint" />
            <mxPoint x="160" y="299.86" as="sourcePoint" />
          </mxGeometry>
        </mxCell>
        <mxCell id="h_vmNCxSiuyqfkkhFMnX-23" style="edgeStyle=orthogonalEdgeStyle;rounded=0;orthogonalLoop=1;jettySize=auto;html=1;exitX=1;exitY=0.5;exitDx=0;exitDy=0;endArrow=none;endFill=0;" edge="1" parent="1">
          <mxGeometry relative="1" as="geometry">
            <mxPoint x="180" y="340.14571428571435" as="targetPoint" />
            <mxPoint x="160" y="339.86" as="sourcePoint" />
          </mxGeometry>
        </mxCell>
        <mxCell id="h_vmNCxSiuyqfkkhFMnX-24" style="edgeStyle=orthogonalEdgeStyle;rounded=0;orthogonalLoop=1;jettySize=auto;html=1;exitX=1;exitY=0.5;exitDx=0;exitDy=0;endArrow=none;endFill=0;" edge="1" parent="1">
          <mxGeometry relative="1" as="geometry">
            <mxPoint x="180" y="380.14571428571435" as="targetPoint" />
            <mxPoint x="160" y="379.86" as="sourcePoint" />
          </mxGeometry>
        </mxCell>
        <mxCell id="h_vmNCxSiuyqfkkhFMnX-25" style="edgeStyle=orthogonalEdgeStyle;rounded=0;orthogonalLoop=1;jettySize=auto;html=1;exitX=1;exitY=0.5;exitDx=0;exitDy=0;endArrow=none;endFill=0;entryX=0;entryY=0.5;entryDx=0;entryDy=0;" edge="1" parent="1" target="h_vmNCxSiuyqfkkhFMnX-1">
          <mxGeometry relative="1" as="geometry">
            <mxPoint x="180" y="420.14571428571435" as="targetPoint" />
            <mxPoint x="160" y="419.86" as="sourcePoint" />
            <Array as="points">
              <mxPoint x="181" y="420" />
            </Array>
          </mxGeometry>
        </mxCell>
        <mxCell id="h_vmNCxSiuyqfkkhFMnX-26" style="edgeStyle=orthogonalEdgeStyle;rounded=0;orthogonalLoop=1;jettySize=auto;html=1;exitX=1;exitY=0.5;exitDx=0;exitDy=0;endArrow=none;endFill=0;" edge="1" parent="1">
          <mxGeometry relative="1" as="geometry">
            <mxPoint x="180" y="460.14571428571435" as="targetPoint" />
            <mxPoint x="160" y="459.86" as="sourcePoint" />
          </mxGeometry>
        </mxCell>
        <mxCell id="h_vmNCxSiuyqfkkhFMnX-27" style="edgeStyle=orthogonalEdgeStyle;rounded=0;orthogonalLoop=1;jettySize=auto;html=1;exitX=1;exitY=0.5;exitDx=0;exitDy=0;endArrow=none;endFill=0;" edge="1" parent="1">
          <mxGeometry relative="1" as="geometry">
            <mxPoint x="180" y="500.14571428571435" as="targetPoint" />
            <mxPoint x="160" y="499.86" as="sourcePoint" />
          </mxGeometry>
        </mxCell>
        <mxCell id="h_vmNCxSiuyqfkkhFMnX-28" style="edgeStyle=orthogonalEdgeStyle;rounded=0;orthogonalLoop=1;jettySize=auto;html=1;exitX=1;exitY=0.5;exitDx=0;exitDy=0;endArrow=none;endFill=0;" edge="1" parent="1">
          <mxGeometry relative="1" as="geometry">
            <mxPoint x="180" y="540.2857142857143" as="targetPoint" />
            <mxPoint x="160" y="540" as="sourcePoint" />
          </mxGeometry>
        </mxCell>
        <mxCell id="h_vmNCxSiuyqfkkhFMnX-29" style="edgeStyle=orthogonalEdgeStyle;rounded=0;orthogonalLoop=1;jettySize=auto;html=1;exitX=1;exitY=0.5;exitDx=0;exitDy=0;endArrow=none;endFill=0;" edge="1" parent="1">
          <mxGeometry relative="1" as="geometry">
            <mxPoint x="180" y="580.2857142857143" as="targetPoint" />
            <mxPoint x="160" y="580" as="sourcePoint" />
          </mxGeometry>
        </mxCell>
        <mxCell id="h_vmNCxSiuyqfkkhFMnX-30" style="edgeStyle=orthogonalEdgeStyle;rounded=0;orthogonalLoop=1;jettySize=auto;html=1;exitX=1;exitY=0.5;exitDx=0;exitDy=0;endArrow=none;endFill=0;" edge="1" parent="1">
          <mxGeometry relative="1" as="geometry">
            <mxPoint x="180" y="620.1457142857143" as="targetPoint" />
            <mxPoint x="160" y="619.86" as="sourcePoint" />
          </mxGeometry>
        </mxCell>
        <mxCell id="h_vmNCxSiuyqfkkhFMnX-31" style="edgeStyle=orthogonalEdgeStyle;rounded=0;orthogonalLoop=1;jettySize=auto;html=1;exitX=1;exitY=0.5;exitDx=0;exitDy=0;endArrow=none;endFill=0;" edge="1" parent="1">
          <mxGeometry relative="1" as="geometry">
            <mxPoint x="180" y="660.1457142857143" as="targetPoint" />
            <mxPoint x="160" y="659.86" as="sourcePoint" />
          </mxGeometry>
        </mxCell>
        <mxCell id="h_vmNCxSiuyqfkkhFMnX-47" style="edgeStyle=orthogonalEdgeStyle;rounded=0;orthogonalLoop=1;jettySize=auto;html=1;exitX=0.5;exitY=1;exitDx=0;exitDy=0;endArrow=none;endFill=0;" edge="1" parent="1" source="h_vmNCxSiuyqfkkhFMnX-37">
          <mxGeometry relative="1" as="geometry">
            <mxPoint x="760" y="180" as="targetPoint" />
            <Array as="points">
              <mxPoint x="120" y="180" />
            </Array>
          </mxGeometry>
        </mxCell>
        <mxCell id="h_vmNCxSiuyqfkkhFMnX-37" value="&lt;u&gt;review_id&lt;/u&gt;" style="ellipse;whiteSpace=wrap;html=1;fillColor=#d5e8d4;strokeColor=#82b366;fontSize=11;" vertex="1" parent="1">
          <mxGeometry x="80" y="120" width="80" height="40" as="geometry" />
        </mxCell>
        <mxCell id="h_vmNCxSiuyqfkkhFMnX-39" value="user_id" style="ellipse;whiteSpace=wrap;html=1;fillColor=#d5e8d4;strokeColor=#82b366;fontSize=11;" vertex="1" parent="1">
          <mxGeometry x="160" y="120" width="80" height="40" as="geometry" />
        </mxCell>
        <mxCell id="h_vmNCxSiuyqfkkhFMnX-40" value="business_id" style="ellipse;whiteSpace=wrap;html=1;fillColor=#d5e8d4;strokeColor=#82b366;fontSize=11;" vertex="1" parent="1">
          <mxGeometry x="240" y="120" width="80" height="40" as="geometry" />
        </mxCell>
        <mxCell id="h_vmNCxSiuyqfkkhFMnX-41" value="stars" style="ellipse;whiteSpace=wrap;html=1;fillColor=#d5e8d4;strokeColor=#82b366;fontSize=11;" vertex="1" parent="1">
          <mxGeometry x="320" y="120" width="80" height="40" as="geometry" />
        </mxCell>
        <mxCell id="h_vmNCxSiuyqfkkhFMnX-42" value="date" style="ellipse;whiteSpace=wrap;html=1;fillColor=#d5e8d4;strokeColor=#82b366;fontSize=11;" vertex="1" parent="1">
          <mxGeometry x="400" y="120" width="80" height="40" as="geometry" />
        </mxCell>
        <mxCell id="h_vmNCxSiuyqfkkhFMnX-43" value="text" style="ellipse;whiteSpace=wrap;html=1;fillColor=#d5e8d4;strokeColor=#82b366;fontSize=11;" vertex="1" parent="1">
          <mxGeometry x="480" y="120" width="80" height="40" as="geometry" />
        </mxCell>
        <mxCell id="h_vmNCxSiuyqfkkhFMnX-44" value="useful" style="ellipse;whiteSpace=wrap;html=1;fillColor=#d5e8d4;strokeColor=#82b366;fontSize=11;" vertex="1" parent="1">
          <mxGeometry x="560" y="120" width="80" height="40" as="geometry" />
        </mxCell>
        <mxCell id="h_vmNCxSiuyqfkkhFMnX-45" value="funny" style="ellipse;whiteSpace=wrap;html=1;fillColor=#d5e8d4;strokeColor=#82b366;fontSize=11;" vertex="1" parent="1">
          <mxGeometry x="640" y="120" width="80" height="40" as="geometry" />
        </mxCell>
        <mxCell id="h_vmNCxSiuyqfkkhFMnX-46" value="cool" style="ellipse;whiteSpace=wrap;html=1;fillColor=#d5e8d4;strokeColor=#82b366;fontSize=11;" vertex="1" parent="1">
          <mxGeometry x="720" y="120" width="80" height="40" as="geometry" />
        </mxCell>
        <mxCell id="h_vmNCxSiuyqfkkhFMnX-48" style="edgeStyle=orthogonalEdgeStyle;rounded=0;orthogonalLoop=1;jettySize=auto;html=1;exitX=0.5;exitY=1;exitDx=0;exitDy=0;endArrow=none;endFill=0;" edge="1" parent="1">
          <mxGeometry relative="1" as="geometry">
            <mxPoint x="199.99714285714276" y="180" as="targetPoint" />
            <mxPoint x="200.14" y="160" as="sourcePoint" />
          </mxGeometry>
        </mxCell>
        <mxCell id="h_vmNCxSiuyqfkkhFMnX-49" style="edgeStyle=orthogonalEdgeStyle;rounded=0;orthogonalLoop=1;jettySize=auto;html=1;exitX=0.5;exitY=1;exitDx=0;exitDy=0;endArrow=none;endFill=0;" edge="1" parent="1">
          <mxGeometry relative="1" as="geometry">
            <mxPoint x="279.80714285714276" y="180" as="targetPoint" />
            <mxPoint x="279.95" y="160" as="sourcePoint" />
          </mxGeometry>
        </mxCell>
        <mxCell id="h_vmNCxSiuyqfkkhFMnX-50" style="edgeStyle=orthogonalEdgeStyle;rounded=0;orthogonalLoop=1;jettySize=auto;html=1;exitX=0.5;exitY=1;exitDx=0;exitDy=0;endArrow=none;endFill=0;" edge="1" parent="1">
          <mxGeometry relative="1" as="geometry">
            <mxPoint x="359.9171428571428" y="180" as="targetPoint" />
            <mxPoint x="360.06" y="160" as="sourcePoint" />
          </mxGeometry>
        </mxCell>
        <mxCell id="h_vmNCxSiuyqfkkhFMnX-51" style="edgeStyle=orthogonalEdgeStyle;rounded=0;orthogonalLoop=1;jettySize=auto;html=1;exitX=0.5;exitY=1;exitDx=0;exitDy=0;endArrow=none;endFill=0;entryX=0.5;entryY=0;entryDx=0;entryDy=0;" edge="1" parent="1" target="h_vmNCxSiuyqfkkhFMnX-2">
          <mxGeometry relative="1" as="geometry">
            <mxPoint x="439.93714285714276" y="180" as="targetPoint" />
            <mxPoint x="440.08" y="160" as="sourcePoint" />
            <Array as="points">
              <mxPoint x="440" y="181" />
              <mxPoint x="440" y="181" />
            </Array>
          </mxGeometry>
        </mxCell>
        <mxCell id="h_vmNCxSiuyqfkkhFMnX-52" style="edgeStyle=orthogonalEdgeStyle;rounded=0;orthogonalLoop=1;jettySize=auto;html=1;exitX=0.5;exitY=1;exitDx=0;exitDy=0;endArrow=none;endFill=0;" edge="1" parent="1">
          <mxGeometry relative="1" as="geometry">
            <mxPoint x="519.9471428571428" y="180" as="targetPoint" />
            <mxPoint x="520.09" y="160" as="sourcePoint" />
          </mxGeometry>
        </mxCell>
        <mxCell id="h_vmNCxSiuyqfkkhFMnX-53" style="edgeStyle=orthogonalEdgeStyle;rounded=0;orthogonalLoop=1;jettySize=auto;html=1;exitX=0.5;exitY=1;exitDx=0;exitDy=0;endArrow=none;endFill=0;" edge="1" parent="1">
          <mxGeometry relative="1" as="geometry">
            <mxPoint x="599.9471428571428" y="180" as="targetPoint" />
            <mxPoint x="600.09" y="160" as="sourcePoint" />
          </mxGeometry>
        </mxCell>
        <mxCell id="h_vmNCxSiuyqfkkhFMnX-54" style="edgeStyle=orthogonalEdgeStyle;rounded=0;orthogonalLoop=1;jettySize=auto;html=1;exitX=0.5;exitY=1;exitDx=0;exitDy=0;endArrow=none;endFill=0;" edge="1" parent="1">
          <mxGeometry relative="1" as="geometry">
            <mxPoint x="679.9471428571428" y="180" as="targetPoint" />
            <mxPoint x="680.09" y="160" as="sourcePoint" />
          </mxGeometry>
        </mxCell>
        <mxCell id="h_vmNCxSiuyqfkkhFMnX-55" style="edgeStyle=orthogonalEdgeStyle;rounded=0;orthogonalLoop=1;jettySize=auto;html=1;exitX=0.5;exitY=1;exitDx=0;exitDy=0;endArrow=none;endFill=0;" edge="1" parent="1">
          <mxGeometry relative="1" as="geometry">
            <mxPoint x="759.9571428571428" y="180" as="targetPoint" />
            <mxPoint x="760.1" y="160" as="sourcePoint" />
          </mxGeometry>
        </mxCell>
        <mxCell id="h_vmNCxSiuyqfkkhFMnX-68" style="edgeStyle=orthogonalEdgeStyle;rounded=0;orthogonalLoop=1;jettySize=auto;html=1;endArrow=none;endFill=0;" edge="1" parent="1" source="h_vmNCxSiuyqfkkhFMnX-56">
          <mxGeometry relative="1" as="geometry">
            <mxPoint x="820" y="180" as="targetPoint" />
          </mxGeometry>
        </mxCell>
        <mxCell id="h_vmNCxSiuyqfkkhFMnX-56" value="&lt;u&gt;user_id&lt;/u&gt;" style="ellipse;whiteSpace=wrap;html=1;fillColor=#d5e8d4;strokeColor=#82b366;" vertex="1" parent="1">
          <mxGeometry x="840" y="160" width="80" height="40" as="geometry" />
        </mxCell>
        <mxCell id="h_vmNCxSiuyqfkkhFMnX-57" value="name" style="ellipse;whiteSpace=wrap;html=1;fillColor=#d5e8d4;strokeColor=#82b366;" vertex="1" parent="1">
          <mxGeometry x="840" y="200" width="80" height="40" as="geometry" />
        </mxCell>
        <mxCell id="h_vmNCxSiuyqfkkhFMnX-58" value="review_count" style="ellipse;whiteSpace=wrap;html=1;fillColor=#d5e8d4;strokeColor=#82b366;" vertex="1" parent="1">
          <mxGeometry x="840" y="240" width="80" height="40" as="geometry" />
        </mxCell>
        <mxCell id="h_vmNCxSiuyqfkkhFMnX-59" value="yelping_since" style="ellipse;whiteSpace=wrap;html=1;fillColor=#d5e8d4;strokeColor=#82b366;" vertex="1" parent="1">
          <mxGeometry x="840" y="280" width="80" height="40" as="geometry" />
        </mxCell>
        <mxCell id="h_vmNCxSiuyqfkkhFMnX-60" value="friends" style="ellipse;whiteSpace=wrap;html=1;fillColor=#d5e8d4;strokeColor=#82b366;" vertex="1" parent="1">
          <mxGeometry x="840" y="320" width="80" height="40" as="geometry" />
        </mxCell>
        <mxCell id="h_vmNCxSiuyqfkkhFMnX-61" value="useful" style="ellipse;whiteSpace=wrap;html=1;fillColor=#d5e8d4;strokeColor=#82b366;" vertex="1" parent="1">
          <mxGeometry x="840" y="360" width="80" height="40" as="geometry" />
        </mxCell>
        <mxCell id="h_vmNCxSiuyqfkkhFMnX-62" value="funny" style="ellipse;whiteSpace=wrap;html=1;fillColor=#d5e8d4;strokeColor=#82b366;" vertex="1" parent="1">
          <mxGeometry x="840" y="400" width="80" height="40" as="geometry" />
        </mxCell>
        <mxCell id="h_vmNCxSiuyqfkkhFMnX-63" value="cool" style="ellipse;whiteSpace=wrap;html=1;fillColor=#d5e8d4;strokeColor=#82b366;" vertex="1" parent="1">
          <mxGeometry x="840" y="440" width="80" height="40" as="geometry" />
        </mxCell>
        <mxCell id="h_vmNCxSiuyqfkkhFMnX-64" value="fans" style="ellipse;whiteSpace=wrap;html=1;fillColor=#d5e8d4;strokeColor=#82b366;" vertex="1" parent="1">
          <mxGeometry x="840" y="480" width="80" height="40" as="geometry" />
        </mxCell>
        <mxCell id="h_vmNCxSiuyqfkkhFMnX-65" value="elite" style="ellipse;whiteSpace=wrap;html=1;fillColor=#d5e8d4;strokeColor=#82b366;" vertex="1" parent="1">
          <mxGeometry x="840" y="520" width="80" height="40" as="geometry" />
        </mxCell>
        <mxCell id="h_vmNCxSiuyqfkkhFMnX-66" value="average_stars" style="ellipse;whiteSpace=wrap;html=1;fillColor=#d5e8d4;strokeColor=#82b366;" vertex="1" parent="1">
          <mxGeometry x="840" y="560" width="80" height="40" as="geometry" />
        </mxCell>
        <mxCell id="h_vmNCxSiuyqfkkhFMnX-67" value="total_compliments" style="ellipse;whiteSpace=wrap;html=1;fillColor=#d5e8d4;strokeColor=#82b366;fontSize=9;" vertex="1" parent="1">
          <mxGeometry x="840" y="600" width="80" height="40" as="geometry" />
        </mxCell>
        <mxCell id="h_vmNCxSiuyqfkkhFMnX-69" style="edgeStyle=orthogonalEdgeStyle;rounded=0;orthogonalLoop=1;jettySize=auto;html=1;endArrow=none;endFill=0;" edge="1" parent="1">
          <mxGeometry relative="1" as="geometry">
            <mxPoint x="820" y="219.92000000000002" as="targetPoint" />
            <mxPoint x="840" y="219.92000000000002" as="sourcePoint" />
          </mxGeometry>
        </mxCell>
        <mxCell id="h_vmNCxSiuyqfkkhFMnX-70" style="edgeStyle=orthogonalEdgeStyle;rounded=0;orthogonalLoop=1;jettySize=auto;html=1;endArrow=none;endFill=0;" edge="1" parent="1">
          <mxGeometry relative="1" as="geometry">
            <mxPoint x="820" y="259.92" as="targetPoint" />
            <mxPoint x="840" y="259.92" as="sourcePoint" />
          </mxGeometry>
        </mxCell>
        <mxCell id="h_vmNCxSiuyqfkkhFMnX-71" style="edgeStyle=orthogonalEdgeStyle;rounded=0;orthogonalLoop=1;jettySize=auto;html=1;endArrow=none;endFill=0;" edge="1" parent="1">
          <mxGeometry relative="1" as="geometry">
            <mxPoint x="820" y="299.92" as="targetPoint" />
            <mxPoint x="840" y="299.92" as="sourcePoint" />
          </mxGeometry>
        </mxCell>
        <mxCell id="h_vmNCxSiuyqfkkhFMnX-72" style="edgeStyle=orthogonalEdgeStyle;rounded=0;orthogonalLoop=1;jettySize=auto;html=1;endArrow=none;endFill=0;" edge="1" parent="1">
          <mxGeometry relative="1" as="geometry">
            <mxPoint x="820" y="339.92" as="targetPoint" />
            <mxPoint x="840" y="339.92" as="sourcePoint" />
          </mxGeometry>
        </mxCell>
        <mxCell id="h_vmNCxSiuyqfkkhFMnX-73" style="edgeStyle=orthogonalEdgeStyle;rounded=0;orthogonalLoop=1;jettySize=auto;html=1;endArrow=none;endFill=0;" edge="1" parent="1">
          <mxGeometry relative="1" as="geometry">
            <mxPoint x="820" y="379.92" as="targetPoint" />
            <mxPoint x="840" y="379.92" as="sourcePoint" />
          </mxGeometry>
        </mxCell>
        <mxCell id="h_vmNCxSiuyqfkkhFMnX-74" style="edgeStyle=orthogonalEdgeStyle;rounded=0;orthogonalLoop=1;jettySize=auto;html=1;endArrow=none;endFill=0;entryX=1;entryY=0.5;entryDx=0;entryDy=0;" edge="1" parent="1" target="h_vmNCxSiuyqfkkhFMnX-3">
          <mxGeometry relative="1" as="geometry">
            <mxPoint x="820" y="419.92" as="targetPoint" />
            <mxPoint x="840" y="419.92" as="sourcePoint" />
            <Array as="points">
              <mxPoint x="820" y="420" />
              <mxPoint x="820" y="420" />
            </Array>
          </mxGeometry>
        </mxCell>
        <mxCell id="h_vmNCxSiuyqfkkhFMnX-75" style="edgeStyle=orthogonalEdgeStyle;rounded=0;orthogonalLoop=1;jettySize=auto;html=1;endArrow=none;endFill=0;" edge="1" parent="1">
          <mxGeometry relative="1" as="geometry">
            <mxPoint x="820" y="459.92" as="targetPoint" />
            <mxPoint x="840" y="459.92" as="sourcePoint" />
          </mxGeometry>
        </mxCell>
        <mxCell id="h_vmNCxSiuyqfkkhFMnX-76" style="edgeStyle=orthogonalEdgeStyle;rounded=0;orthogonalLoop=1;jettySize=auto;html=1;endArrow=none;endFill=0;" edge="1" parent="1">
          <mxGeometry relative="1" as="geometry">
            <mxPoint x="820" y="499.92" as="targetPoint" />
            <mxPoint x="840" y="499.92" as="sourcePoint" />
          </mxGeometry>
        </mxCell>
        <mxCell id="h_vmNCxSiuyqfkkhFMnX-77" style="edgeStyle=orthogonalEdgeStyle;rounded=0;orthogonalLoop=1;jettySize=auto;html=1;endArrow=none;endFill=0;" edge="1" parent="1">
          <mxGeometry relative="1" as="geometry">
            <mxPoint x="820" y="539.9200000000001" as="targetPoint" />
            <mxPoint x="840" y="539.9200000000001" as="sourcePoint" />
          </mxGeometry>
        </mxCell>
        <mxCell id="h_vmNCxSiuyqfkkhFMnX-78" style="edgeStyle=orthogonalEdgeStyle;rounded=0;orthogonalLoop=1;jettySize=auto;html=1;endArrow=none;endFill=0;" edge="1" parent="1">
          <mxGeometry relative="1" as="geometry">
            <mxPoint x="820" y="579.9200000000001" as="targetPoint" />
            <mxPoint x="840" y="579.9200000000001" as="sourcePoint" />
          </mxGeometry>
        </mxCell>
        <mxCell id="h_vmNCxSiuyqfkkhFMnX-79" style="edgeStyle=orthogonalEdgeStyle;rounded=0;orthogonalLoop=1;jettySize=auto;html=1;endArrow=none;endFill=0;" edge="1" parent="1">
          <mxGeometry relative="1" as="geometry">
            <mxPoint x="820" y="180" as="targetPoint" />
            <mxPoint x="840" y="619.9200000000001" as="sourcePoint" />
          </mxGeometry>
        </mxCell>
        <mxCell id="h_vmNCxSiuyqfkkhFMnX-90" value="text" style="ellipse;whiteSpace=wrap;html=1;fillColor=#d5e8d4;strokeColor=#82b366;fontSize=11;" vertex="1" parent="1">
          <mxGeometry x="330" y="720" width="80" height="40" as="geometry" />
        </mxCell>
        <mxCell id="h_vmNCxSiuyqfkkhFMnX-91" value="date" style="ellipse;whiteSpace=wrap;html=1;fillColor=#d5e8d4;strokeColor=#82b366;fontSize=11;" vertex="1" parent="1">
          <mxGeometry x="410" y="720" width="80" height="40" as="geometry" />
        </mxCell>
        <mxCell id="h_vmNCxSiuyqfkkhFMnX-92" value="&lt;font style=&quot;font-size: 9px;&quot;&gt;compliment_count&lt;/font&gt;" style="ellipse;whiteSpace=wrap;html=1;fillColor=#d5e8d4;strokeColor=#82b366;fontSize=11;" vertex="1" parent="1">
          <mxGeometry x="490" y="720" width="80" height="40" as="geometry" />
        </mxCell>
        <mxCell id="h_vmNCxSiuyqfkkhFMnX-93" value="business_id" style="ellipse;whiteSpace=wrap;html=1;fillColor=#d5e8d4;strokeColor=#82b366;fontSize=11;" vertex="1" parent="1">
          <mxGeometry x="570" y="720" width="80" height="40" as="geometry" />
        </mxCell>
        <mxCell id="h_vmNCxSiuyqfkkhFMnX-94" value="user_id" style="ellipse;whiteSpace=wrap;html=1;fillColor=#d5e8d4;strokeColor=#82b366;fontSize=11;" vertex="1" parent="1">
          <mxGeometry x="650" y="720" width="80" height="40" as="geometry" />
        </mxCell>
        <mxCell id="h_vmNCxSiuyqfkkhFMnX-101" style="edgeStyle=orthogonalEdgeStyle;rounded=0;orthogonalLoop=1;jettySize=auto;html=1;exitX=0.5;exitY=0;exitDx=0;exitDy=0;endArrow=none;endFill=0;" edge="1" parent="1">
          <mxGeometry relative="1" as="geometry">
            <mxPoint x="690" y="700" as="targetPoint" />
            <mxPoint x="370" y="720" as="sourcePoint" />
            <Array as="points">
              <mxPoint x="370" y="700" />
            </Array>
          </mxGeometry>
        </mxCell>
        <mxCell id="h_vmNCxSiuyqfkkhFMnX-102" style="edgeStyle=orthogonalEdgeStyle;rounded=0;orthogonalLoop=1;jettySize=auto;html=1;exitX=0.5;exitY=0;exitDx=0;exitDy=0;endArrow=none;endFill=0;" edge="1" parent="1">
          <mxGeometry relative="1" as="geometry">
            <mxPoint x="450.05555555555554" y="700" as="targetPoint" />
            <mxPoint x="450" y="720" as="sourcePoint" />
          </mxGeometry>
        </mxCell>
        <mxCell id="h_vmNCxSiuyqfkkhFMnX-103" style="edgeStyle=orthogonalEdgeStyle;rounded=0;orthogonalLoop=1;jettySize=auto;html=1;exitX=0.5;exitY=0;exitDx=0;exitDy=0;endArrow=none;endFill=0;" edge="1" parent="1">
          <mxGeometry relative="1" as="geometry">
            <mxPoint x="530.0555555555555" y="700" as="targetPoint" />
            <mxPoint x="530" y="720" as="sourcePoint" />
          </mxGeometry>
        </mxCell>
        <mxCell id="h_vmNCxSiuyqfkkhFMnX-104" style="edgeStyle=orthogonalEdgeStyle;rounded=0;orthogonalLoop=1;jettySize=auto;html=1;exitX=0.5;exitY=0;exitDx=0;exitDy=0;endArrow=none;endFill=0;" edge="1" parent="1">
          <mxGeometry relative="1" as="geometry">
            <mxPoint x="609.9455555555555" y="700" as="targetPoint" />
            <mxPoint x="609.89" y="720" as="sourcePoint" />
          </mxGeometry>
        </mxCell>
        <mxCell id="h_vmNCxSiuyqfkkhFMnX-105" style="edgeStyle=orthogonalEdgeStyle;rounded=0;orthogonalLoop=1;jettySize=auto;html=1;exitX=0.5;exitY=0;exitDx=0;exitDy=0;endArrow=none;endFill=0;" edge="1" parent="1">
          <mxGeometry relative="1" as="geometry">
            <mxPoint x="689.9955555555555" y="700" as="targetPoint" />
            <mxPoint x="689.9399999999999" y="720" as="sourcePoint" />
          </mxGeometry>
        </mxCell>
        <mxCell id="h_vmNCxSiuyqfkkhFMnX-109" style="rounded=0;orthogonalLoop=1;jettySize=auto;html=1;exitX=1;exitY=0.5;exitDx=0;exitDy=0;entryX=0.25;entryY=1;entryDx=0;entryDy=0;endArrow=none;endFill=0;shape=link;" edge="1" parent="1" source="h_vmNCxSiuyqfkkhFMnX-107" target="h_vmNCxSiuyqfkkhFMnX-2">
          <mxGeometry relative="1" as="geometry" />
        </mxCell>
        <mxCell id="h_vmNCxSiuyqfkkhFMnX-107" value="Written for" style="rhombus;whiteSpace=wrap;html=1;fontSize=11;fillColor=#e1d5e7;strokeColor=#9673a6;" vertex="1" parent="1">
          <mxGeometry x="300" y="300" width="80" height="40" as="geometry" />
        </mxCell>
        <mxCell id="h_vmNCxSiuyqfkkhFMnX-111" style="rounded=0;orthogonalLoop=1;jettySize=auto;html=1;exitX=0;exitY=0.5;exitDx=0;exitDy=0;entryX=0.75;entryY=1;entryDx=0;entryDy=0;endArrow=none;endFill=0;shape=link;" edge="1" parent="1" source="h_vmNCxSiuyqfkkhFMnX-110" target="h_vmNCxSiuyqfkkhFMnX-2">
          <mxGeometry relative="1" as="geometry" />
        </mxCell>
        <mxCell id="h_vmNCxSiuyqfkkhFMnX-112" style="rounded=0;orthogonalLoop=1;jettySize=auto;html=1;exitX=1;exitY=0.5;exitDx=0;exitDy=0;entryX=0.5;entryY=0;entryDx=0;entryDy=0;endArrow=none;endFill=0;" edge="1" parent="1" source="h_vmNCxSiuyqfkkhFMnX-110" target="h_vmNCxSiuyqfkkhFMnX-3">
          <mxGeometry relative="1" as="geometry" />
        </mxCell>
        <mxCell id="h_vmNCxSiuyqfkkhFMnX-110" value="Written by" style="rhombus;whiteSpace=wrap;html=1;fontSize=11;fillColor=#e1d5e7;strokeColor=#9673a6;" vertex="1" parent="1">
          <mxGeometry x="500" y="300" width="80" height="40" as="geometry" />
        </mxCell>
        <mxCell id="h_vmNCxSiuyqfkkhFMnX-116" style="rounded=0;orthogonalLoop=1;jettySize=auto;html=1;exitX=1;exitY=0.5;exitDx=0;exitDy=0;entryX=0;entryY=0.5;entryDx=0;entryDy=0;endArrow=none;endFill=0;shape=link;" edge="1" parent="1" source="h_vmNCxSiuyqfkkhFMnX-113" target="h_vmNCxSiuyqfkkhFMnX-5">
          <mxGeometry relative="1" as="geometry" />
        </mxCell>
        <mxCell id="h_vmNCxSiuyqfkkhFMnX-113" value="Written for" style="rhombus;whiteSpace=wrap;html=1;fontSize=11;fillColor=#e1d5e7;strokeColor=#9673a6;" vertex="1" parent="1">
          <mxGeometry x="360" y="520" width="80" height="40" as="geometry" />
        </mxCell>
        <mxCell id="h_vmNCxSiuyqfkkhFMnX-119" style="rounded=0;orthogonalLoop=1;jettySize=auto;html=1;entryX=0.5;entryY=1;entryDx=0;entryDy=0;endArrow=none;endFill=0;exitX=1;exitY=0.5;exitDx=0;exitDy=0;" edge="1" parent="1" source="h_vmNCxSiuyqfkkhFMnX-117" target="h_vmNCxSiuyqfkkhFMnX-3">
          <mxGeometry relative="1" as="geometry">
            <mxPoint x="640" y="560" as="sourcePoint" />
          </mxGeometry>
        </mxCell>
        <mxCell id="h_vmNCxSiuyqfkkhFMnX-117" value="Written by" style="rhombus;whiteSpace=wrap;html=1;fontSize=11;fillColor=#e1d5e7;strokeColor=#9673a6;" vertex="1" parent="1">
          <mxGeometry x="600" y="520" width="80" height="40" as="geometry" />
        </mxCell>
      </root>
    </mxGraphModel>
  </diagram>
</mxfile>
